<?xml version="1.0" standalone="no"?>
<!DOCTYPE svg PUBLIC "-//W3C//DTD SVG 20010904//EN"
 "http://www.w3.org/TR/2001/REC-SVG-20010904/DTD/svg10.dtd">
<svg version="1.0" xmlns="http://www.w3.org/2000/svg"
 width="444.000000pt" height="113.000000pt" viewBox="0 0 444.000000 113.000000"
 preserveAspectRatio="xMidYMid meet">

<g transform="translate(0.000000,113.000000) scale(0.100000,-0.100000)"
fill="#000000" stroke="none">
<path d="M2090 900 l0 -50 -95 0 -94 0 -3 -110 c-2 -63 -7 -111 -13 -113 -5
-1 -11 10 -13 26 -3 23 -8 27 -33 27 -26 0 -29 -3 -29 -31 0 -24 -4 -30 -15
-25 -12 4 -15 -4 -15 -46 0 -45 4 -56 28 -76 l27 -23 -34 5 c-18 3 -44 6 -57
6 -19 0 -24 5 -24 24 0 27 -41 59 -68 54 -10 -2 -18 -14 -20 -31 -3 -25 -7
-27 -37 -25 -21 1 -41 -5 -54 -16 -11 -10 -28 -16 -38 -14 -14 2 -8 10 24 33
24 17 43 33 43 38 0 4 -29 7 -65 7 l-65 0 0 80 0 80 -60 0 c-53 0 -60 -2 -60
-20 0 -17 -7 -20 -40 -20 -38 0 -40 -2 -40 -30 0 -25 -4 -30 -25 -30 -21 0
-25 -5 -25 -30 l0 -30 -60 0 -60 0 0 40 c0 40 0 40 -40 40 l-39 0 -3 -62 c-2
-50 -6 -63 -21 -66 -15 -3 -17 6 -17 88 l0 91 -67 -3 -68 -3 -3 -88 -3 -88
-37 6 c-20 4 -44 9 -52 12 -8 3 -32 5 -52 5 l-38 0 0 79 0 79 -57 0 -58 0 3
-55 4 -55 -86 0 -86 0 0 -80 0 -80 -60 0 -60 0 0 -125 0 -125 179 0 180 0 7
56 c3 30 3 82 0 115 -6 49 -4 59 8 59 8 0 17 -4 21 -9 3 -6 18 -6 37 0 65 18
118 -21 118 -87 0 -66 -33 -99 -99 -99 -42 0 -51 -3 -51 -18 0 -16 89 -17
1763 -15 l1762 3 3 59 c4 72 -2 94 -20 74 -23 -25 -39 -58 -27 -56 19 5 21
-18 4 -36 -21 -20 -29 -20 -50 0 -17 17 -15 41 3 37 8 -2 8 4 0 22 -11 25 -13
26 -112 23 l-101 -3 3 -42 c3 -35 0 -42 -18 -48 -25 -8 -50 10 -50 36 0 23 16
25 24 4 6 -17 26 -20 26 -4 0 5 -4 8 -9 5 -5 -4 -15 7 -23 24 -9 21 -20 30
-35 30 -13 0 -23 4 -23 10 0 6 74 11 187 12 124 2 188 7 190 14 2 6 -5 22 -16
35 -18 23 -25 24 -162 26 -79 2 -146 6 -150 11 -3 4 -19 50 -35 102 -16 52
-30 87 -32 78 -3 -13 -13 -18 -37 -18 -18 0 -40 -3 -49 -6 -11 -4 -16 -1 -16
10 0 12 -10 16 -45 16 l-45 0 0 80 0 80 -54 0 c-52 0 -55 -1 -58 -27 -3 -28
-4 -28 -80 -31 l-78 -3 0 -44 c0 -41 -2 -45 -25 -45 -25 0 -25 1 -25 80 l0 80
-70 0 -70 0 0 -110 0 -110 -30 0 c-20 0 -30 5 -30 15 0 12 -13 15 -55 15 l-55
0 0 130 0 130 -75 0 -75 0 0 -85 0 -85 -30 0 c-20 0 -30 5 -30 15 0 10 -7 15
-17 13 -12 -2 -19 4 -21 20 -3 17 -10 22 -33 22 -24 0 -29 4 -29 25 0 23 -4
25 -40 25 l-40 0 0 80 0 80 -70 0 c-70 0 -70 0 -70 -28 0 -31 -30 -62 -60 -62
-18 0 -20 -7 -20 -60 0 -61 -8 -72 -30 -45 -7 8 -23 15 -36 15 -24 0 -24 2
-24 95 l0 95 -60 0 -60 0 0 -50z m-622 -439 c3 -21 1 -23 -23 -17 -39 10 -90
-10 -121 -47 -22 -26 -25 -38 -21 -71 8 -60 43 -86 113 -86 l54 0 0 35 c0 36
-15 46 -38 23 -9 -9 -15 -9 -24 0 -18 18 11 43 56 47 45 4 60 -18 50 -73 -11
-59 -28 -72 -99 -72 -74 0 -120 26 -148 82 -24 48 -15 96 27 143 54 63 167 86
174 36z m140 -24 l3 -47 37 6 c62 10 80 -14 84 -111 3 -74 2 -80 -17 -80 -18
0 -20 7 -20 67 0 81 -16 105 -58 89 -26 -10 -27 -13 -27 -86 0 -68 -2 -75 -19
-75 -19 0 -20 9 -23 141 -2 77 -1 143 2 145 2 3 11 3 20 2 10 -2 16 -17 18
-51z m-1161 13 c24 -46 95 -215 96 -230 1 -8 -6 -16 -15 -18 -13 -2 -24 10
-40 43 l-22 46 -50 -3 c-48 -3 -50 -4 -64 -45 -13 -42 -37 -57 -48 -30 -2 7
18 61 46 121 28 59 49 114 46 121 -13 35 33 30 51 -5z m1858 5 c30 -29 32 -61
5 -90 l-20 -22 20 -18 c56 -51 -12 -131 -106 -123 l-39 3 -5 138 -5 137 63 0
c53 0 67 -4 87 -25z m1135 -19 c-17 -21 -36 -20 -44 1 -10 26 23 48 43 29 12
-12 12 -18 1 -30z m-2575 -46 c4 -6 15 -5 30 2 31 14 71 3 89 -25 9 -12 16
-52 17 -92 2 -63 1 -70 -17 -70 -16 0 -19 8 -22 55 -4 101 -17 119 -68 100
-25 -10 -26 -13 -22 -83 3 -66 1 -72 -17 -72 -18 0 -20 8 -23 98 -2 80 0 97
12 97 8 0 17 -4 21 -10z m320 -10 c12 -13 18 -38 20 -83 1 -35 5 -69 8 -74 10
-15 -23 -26 -38 -13 -9 8 -15 8 -20 0 -10 -16 -66 -12 -87 7 -24 21 -23 65 1
87 11 10 38 20 60 23 44 6 50 13 25 34 -12 10 -22 10 -47 1 -37 -14 -55 -2
-32 22 23 23 87 21 110 -4z m721 12 c22 -14 33 -49 35 -117 l2 -69 -63 -3
c-73 -3 -100 12 -100 57 0 36 29 60 79 67 44 6 50 13 26 33 -14 12 -29 11 -67
-5 -21 -8 -25 14 -6 33 13 13 76 16 94 4z m124 -7 c10 -12 15 -12 35 1 27 18
45 12 45 -15 0 -24 -11 -33 -26 -21 -8 8 -17 6 -29 -6 -12 -13 -16 -32 -14
-78 2 -55 1 -61 -17 -61 -17 0 -19 9 -22 98 -3 95 3 112 28 82z m480 5 c21
-11 28 -40 32 -125 l2 -59 -59 -3 c-73 -3 -105 14 -105 56 0 37 29 61 79 68
44 6 50 13 26 33 -14 12 -29 11 -67 -5 -21 -8 -25 14 -6 33 15 15 72 16 98 2z
m125 0 c4 -6 15 -5 30 2 31 14 71 3 89 -25 9 -12 16 -52 17 -92 2 -63 1 -70
-17 -70 -16 0 -19 8 -22 55 -4 101 -17 119 -68 100 -24 -10 -25 -13 -23 -83 2
-65 1 -72 -17 -72 -17 0 -20 10 -24 98 -4 86 -3 97 12 97 9 0 19 -4 23 -10z
m317 -7 c13 -12 18 -31 18 -75 0 -33 5 -68 10 -79 6 -10 7 -19 3 -20 -89 -10
-128 -8 -144 7 -25 22 -24 66 0 88 11 10 38 20 60 23 23 3 41 9 41 12 0 14
-25 31 -45 31 -12 0 -26 -5 -33 -12 -8 -8 -15 -9 -23 -1 -17 17 18 43 58 43
20 0 45 -7 55 -17z m240 6 c27 -15 51 -74 43 -110 -10 -43 -58 -79 -106 -79
-54 0 -78 14 -95 57 -20 46 -10 86 28 118 32 27 93 34 130 14z m242 3 c2 -4 6
-48 7 -97 2 -84 1 -90 -19 -93 -19 -3 -21 2 -24 92 -2 58 1 98 7 100 16 7 24
6 29 -2z m111 -2 c4 -7 12 -7 25 0 28 15 55 12 79 -8 19 -15 22 -28 24 -97 2
-69 0 -80 -15 -83 -16 -3 -18 5 -18 66 0 83 -19 110 -64 92 -27 -10 -27 -12
-25 -83 2 -67 1 -72 -19 -75 -21 -3 -22 0 -22 81 0 47 -3 92 -6 101 -4 11 0
16 14 16 12 0 24 -5 27 -10z m-212 -154 c7 -17 -11 -36 -35 -36 -13 0 -18 8
-18 25 0 20 5 25 24 25 13 0 26 -6 29 -14z"/>
<path d="M406 368 c-21 -49 -21 -48 14 -48 33 0 36 10 16 55 l-14 30 -16 -37z"/>
<path d="M2200 405 c0 -43 1 -45 29 -45 31 0 61 22 61 45 0 19 -39 45 -67 45
-21 0 -23 -5 -23 -45z"/>
<path d="M2207 323 c-4 -3 -7 -24 -7 -45 0 -35 2 -38 28 -38 33 0 65 30 56 53
-3 9 -19 20 -36 26 -37 13 -33 13 -41 4z"/>
<path d="M1102 288 c-18 -18 -14 -46 8 -53 29 -9 60 12 60 40 0 21 -5 25 -28
25 -15 0 -33 -5 -40 -12z"/>
<path d="M1838 289 c-43 -25 -2 -73 42 -49 29 16 27 60 -2 60 -13 0 -31 -5
-40 -11z"/>
<path d="M2438 289 c-27 -15 -22 -47 7 -55 31 -8 55 10 55 42 0 18 -5 24 -22
24 -13 0 -31 -5 -40 -11z"/>
<path d="M2872 288 c-17 -17 -15 -48 4 -55 27 -10 64 14 64 42 0 21 -5 25 -28
25 -15 0 -33 -5 -40 -12z"/>
<path d="M3081 344 c-12 -15 -21 -35 -21 -46 0 -25 44 -68 70 -68 26 0 70 43
70 68 0 11 -9 31 -21 46 -28 35 -70 35 -98 0z"/>
<path d="M3728 694 c3 -35 7 -44 19 -40 8 3 37 6 64 6 l49 0 0 40 0 40 -68 0
-67 0 3 -46z"/>
<path d="M1637 703 c-4 -3 -7 -29 -7 -56 0 -41 3 -48 16 -43 9 3 29 -3 45 -15
l29 -20 0 70 0 71 -38 0 c-21 0 -42 -3 -45 -7z"/>
<path d="M3900 680 c0 -16 7 -20 30 -20 23 0 30 4 30 20 0 16 -7 20 -30 20
-23 0 -30 -4 -30 -20z"/>
<path d="M4175 669 c-4 -6 -5 -12 -2 -15 2 -3 7 2 10 11 7 17 1 20 -8 4z"/>
<path d="M4132 464 c-10 -54 -10 -69 1 -85 20 -28 27 -13 27 60 0 92 -13 103
-28 25z"/>
<path d="M642 348 c-6 -6 -12 -31 -12 -55 0 -38 3 -45 27 -54 57 -21 107 34
81 89 -10 21 -22 28 -48 30 -19 2 -41 -3 -48 -10z"/>
</g>
</svg>
