<?xml version="1.0" standalone="no"?>
<!DOCTYPE svg PUBLIC "-//W3C//DTD SVG 20010904//EN"
 "http://www.w3.org/TR/2001/REC-SVG-20010904/DTD/svg10.dtd">
<svg version="1.0" xmlns="http://www.w3.org/2000/svg"
 width="213.000000pt" height="212.000000pt" viewBox="0 0 213.000000 212.000000"
 preserveAspectRatio="xMidYMid meet">
<metadata>
Created by potrace 1.10, written by Peter Selinger 2001-2011
</metadata>
<g transform="translate(0.000000,212.000000) scale(0.100000,-0.100000)"
fill="#000000" stroke="none">
<path d="M912 1959 c-145 -24 -285 -151 -328 -297 l-16 -53 -113 3 c-63 1
-116 0 -120 -3 -3 -4 -21 -136 -41 -295 -103 -864 -127 -1050 -135 -1059 -4
-6 -31 -17 -59 -24 -60 -15 -57 -28 10 -37 56 -7 62 -12 79 -71 6 -24 16 -43
20 -43 5 0 11 22 15 50 l7 50 796 0 796 0 -6 58 c-4 31 -18 149 -32 262 -14
113 -31 256 -37 318 -7 68 -15 106 -19 95 -6 -14 -8 -11 -8 12 -1 50 -71 638
-79 664 -7 23 -9 24 -123 22 l-117 -2 -11 49 c-37 150 -171 271 -338 302 -63
11 -67 11 -141 -1z m228 -56 c30 -14 58 -26 61 -25 16 3 109 -101 131 -145 13
-27 46 -131 73 -230 27 -100 52 -180 54 -177 3 3 19 -48 36 -113 103 -384 231
-841 236 -838 3 2 14 -34 26 -80 l20 -85 -734 -2 c-404 -2 -737 0 -740 5 -2 4
3 7 11 7 37 0 12 18 -35 26 -84 15 -84 15 -27 479 26 215 58 491 73 615 14
124 28 231 30 238 4 10 32 13 112 12 60 -1 113 -1 119 -1 6 1 14 17 17 36 6
37 57 158 64 151 2 -2 25 18 50 45 49 52 132 99 197 110 69 13 166 0 226 -28z
m475 -338 c3 -14 8 -37 11 -52 3 -16 8 -46 10 -68 2 -22 8 -76 14 -120 5 -44
14 -125 20 -180 7 -55 20 -149 30 -210 10 -60 22 -137 26 -170 4 -33 8 -67 9
-75 8 -58 24 -198 25 -210 0 -8 3 -40 5 -70 l4 -55 -20 50 c-11 28 -22 59 -25
70 -10 45 -14 63 -30 115 -8 30 -16 62 -17 70 -2 8 -8 26 -16 39 -7 12 -11 32
-8 42 3 10 1 19 -4 19 -5 0 -9 6 -9 14 0 8 -12 53 -26 102 -14 49 -26 100 -27
115 -1 15 -5 25 -9 22 -5 -2 -8 5 -8 15 0 11 -15 73 -34 139 -19 65 -36 127
-38 138 -2 11 -6 23 -11 26 -12 9 -70 228 -63 244 4 12 24 15 95 15 89 0 91
-1 96 -25z m-1385 -1325 c8 -5 25 -10 38 -10 12 0 22 -4 22 -10 0 -5 -10 -10
-22 -10 -34 0 -49 -14 -57 -51 l-8 -34 -10 35 c-8 31 -14 36 -53 44 l-44 10
40 11 c34 9 40 16 49 49 l9 38 11 -31 c6 -18 17 -36 25 -41z"/>
<path d="M908 1836 c-59 -16 -118 -55 -153 -100 -26 -34 -70 -135 -62 -143 2
-2 137 -4 298 -3 l294 0 -2 25 c-4 48 -47 117 -100 159 -90 70 -174 89 -275
62z m181 -36 c58 -27 121 -83 148 -134 12 -23 22 -44 23 -49 0 -8 -525 -9
-533 0 -8 8 26 74 58 111 71 85 206 116 304 72z"/>
<path d="M674 1201 c-75 -46 -36 -151 56 -151 71 0 107 94 55 145 -29 30 -68
32 -111 6z m90 -33 c22 -31 20 -53 -7 -71 -35 -23 -73 -19 -86 10 -15 32 -5
62 22 73 36 14 55 11 71 -12z"/>
<path d="M1208 1204 c-72 -38 -61 -135 17 -150 50 -9 83 2 100 36 22 43 19 68
-14 101 -32 32 -62 36 -103 13z m97 -37 c7 -7 6 -8 -2 -3 -15 8 -18 -10 -3
-19 6 -3 10 -11 10 -16 0 -6 -4 -7 -10 -4 -5 3 -7 0 -4 -8 7 -20 -32 -46 -57
-40 -30 8 -55 51 -42 72 23 37 80 47 108 18z"/>
<path d="M909 840 c-72 -12 -131 -43 -195 -101 -67 -60 -79 -75 -99 -122 -21
-51 -2 -67 25 -21 28 50 110 119 180 152 49 24 67 27 165 27 95 -1 117 -4 160
-24 28 -14 53 -24 56 -23 15 3 101 -83 125 -125 19 -31 30 -41 37 -34 16 16
-30 106 -81 158 -48 50 -142 98 -221 113 -60 11 -85 11 -152 0z"/>
<path d="M1815 1400 c17 -19 17 -21 1 -39 -12 -13 -14 -21 -6 -26 6 -4 18 1
25 11 13 18 14 18 28 0 8 -11 19 -16 26 -12 9 6 8 13 -5 27 -14 15 -15 21 -4
34 17 20 5 32 -15 15 -12 -10 -19 -10 -27 -2 -7 7 -19 12 -27 12 -11 0 -10 -4
4 -20z"/>
<path d="M1875 1230 c-7 -11 0 -14 50 -25 41 -9 60 -25 43 -36 -7 -5 -25 -9
-40 -9 -54 0 -24 -34 61 -68 30 -12 56 -20 59 -18 10 11 -12 25 -63 41 -58 19
-72 35 -31 35 14 0 28 5 31 10 4 6 11 8 16 5 5 -4 9 -3 9 1 0 12 -51 54 -66
54 -22 0 -28 1 -46 11 -10 6 -19 5 -23 -1z"/>
<path d="M91 1084 c-12 -15 -21 -32 -21 -39 0 -27 41 -65 70 -65 29 0 70 38
70 65 0 27 -41 65 -70 65 -19 0 -36 -9 -49 -26z m87 -6 c15 -15 15 -51 0 -66
-7 -7 -25 -12 -40 -12 -36 0 -56 36 -39 69 13 23 59 29 79 9z"/>
<path d="M44 961 c0 -13 7 -19 18 -18 24 2 24 37 0 37 -11 0 -18 -7 -18 -19z"/>
<path d="M1832 694 c-12 -8 -22 -25 -22 -38 0 -24 28 -56 48 -56 17 0 52 37
52 55 0 16 -34 55 -48 55 -4 0 -18 -7 -30 -16z m52 -29 c3 -8 -2 -22 -11 -30
-14 -15 -18 -15 -31 -1 -8 8 -12 22 -9 30 8 20 43 21 51 1z"/>
</g>
</svg>
